<svg role="img" viewBox="0 0 24 24" fill="none" xmlns="http://www.w3.org/2000/svg" width="30" height="30" aria-labelledby="githubIconTitle" >
  <title id="githubIconTitle">GitHub icon</title>
  <path fill-rule="evenodd" clip-rule="evenodd"
    d="M12 2C6.477 2 2 6.477 2 12c0 4.418 2.865 8.166 6.839 9.489.5.092.682-.217.682-.482 0-.237-.009-.868-.014-1.703-2.782.605-3.369-1.342-3.369-1.342-.454-1.155-1.11-1.464-1.11-1.464-.908-.62.069-.608.069-.608 1.004.07 1.532 1.031 1.532 1.031.892 1.529 2.341 1.088 2.91.832.092-.647.35-1.088.636-1.34-2.22-.252-4.555-1.11-4.555-4.943 0-1.09.39-1.982 1.029-2.68-.103-.253-.446-1.27.098-2.646 0 0 .84-.269 2.75 1.025A9.564 9.564 0 0112 6.844c.85.004 1.705.115 2.504.337 1.909-1.294 2.747-1.025 2.747-1.025.546 1.376.202 2.393.1 2.646.64.698 1.028 1.59 1.028 2.68 0 3.842-2.339 4.687-4.566 4.936.359.31.678.92.678 1.855 0 1.338-.012 2.419-.012 2.75 0 .268.18.58.688.48A10.013 10.013 0 0022 12c0-5.523-4.477-10-10-10z"
    fill="currentColor" />
</svg>
